<?xml version="1.0" standalone="no"?>
<!DOCTYPE svg PUBLIC "-//W3C//DTD SVG 20010904//EN"
 "http://www.w3.org/TR/2001/REC-SVG-20010904/DTD/svg10.dtd">
<svg version="1.0" xmlns="http://www.w3.org/2000/svg"
 width="700.000000pt" height="700.000000pt" viewBox="0 0 700.000000 700.000000"
 preserveAspectRatio="xMidYMid meet">
<metadata>
Created by potrace 1.11, written by Peter Selinger 2001-2013
</metadata>
<g transform="translate(0.000000,700.000000) scale(0.100000,-0.100000)"
fill="#000000" stroke="none">
<path d="M3578 6525 c-1 -1 -48 -5 -103 -9 -459 -28 -886 -254 -1176 -621
-195 -247 -324 -564 -355 -875 -3 -36 -7 -66 -9 -68 -1 -1 -19 -5 -38 -7 -195
-25 -407 -133 -543 -277 -111 -117 -205 -282 -243 -428 -13 -50 -24 -74 -32
-72 -57 14 -243 -9 -336 -42 -341 -121 -574 -446 -575 -801 0 -114 22 -209 72
-310 103 -208 291 -328 580 -370 145 -21 4699 -20 4845 1 620 89 1092 575
1160 1195 6 50 6 231 1 269 -2 14 -6 50 -10 80 -10 67 -40 187 -67 258 -24 66
-93 205 -119 243 -11 15 -20 32 -20 37 0 6 -3 12 -7 14 -5 2 -28 30 -53 63
-171 230 -472 424 -757 489 -119 27 -152 30 -293 30 -110 1 -153 -4 -232 -24
-54 -13 -99 -22 -101 -19 -2 2 -17 47 -34 99 -121 371 -378 699 -713 907 -134
83 -285 146 -451 187 -115 29 -139 33 -274 42 -49 3 -95 7 -102 9 -6 2 -13 2
-15 0z m167 -330 c345 -37 684 -235 906 -530 138 -185 210 -356 255 -615 33
-188 31 -184 68 -165 45 24 209 83 262 95 27 7 58 14 69 17 51 13 293 11 363
-2 220 -44 398 -139 552 -294 344 -348 393 -891 117 -1298 -154 -228 -404
-389 -682 -439 -22 -4 -1095 -9 -2385 -10 -2424 -3 -2406 -3 -2525 36 -170 55
-250 148 -258 300 -13 246 141 468 376 541 109 34 201 30 357 -16 69 -20 133
-39 143 -42 16 -5 17 7 17 158 -1 178 14 258 65 358 90 178 271 314 464 349
53 10 182 8 290 -3 l54 -6 -8 118 c-10 171 -10 171 -2 253 35 354 219 686 506
914 139 111 317 201 476 242 108 28 139 33 225 40 47 4 86 8 88 9 4 4 142 -3
207 -10z"/>
<path d="M1595 2078 c-64 -180 -181 -502 -205 -563 -16 -42 -306 -838 -360
-990 -10 -27 -18 -51 -17 -52 1 -1 32 -12 68 -26 l66 -25 43 122 c24 66 49
135 56 151 7 17 27 71 44 120 18 50 38 106 45 125 93 245 455 1245 455 1257 0
10 -19 13 -74 13 l-73 0 -48 -132z"/>
<path d="M2839 2182 c-6 -15 -43 -117 -83 -227 -114 -313 -446 -1223 -473
-1295 -41 -111 -63 -184 -55 -191 9 -8 102 -39 117 -39 7 0 19 21 28 47 19 59
325 900 337 928 6 15 258 708 287 791 2 7 -23 11 -72 12 -74 2 -76 1 -86 -26z"/>
<path d="M4010 2086 c-24 -67 -49 -134 -56 -151 -7 -16 -27 -70 -45 -120 -17
-49 -47 -133 -66 -185 -19 -52 -55 -149 -78 -215 -24 -66 -56 -154 -71 -195
-143 -389 -272 -745 -271 -747 1 -1 32 -12 68 -26 l66 -25 72 202 c40 110 76
210 81 221 5 11 45 121 90 245 44 124 87 241 95 260 7 19 43 118 80 220 36
102 72 201 80 220 7 19 25 69 40 110 15 41 30 84 35 95 23 57 70 192 70 203 0
7 -24 11 -74 10 l-73 -1 -43 -121z"/>
<path d="M5255 2201 c-11 -19 -626 -1724 -622 -1727 2 -2 32 -15 66 -29 l62
-24 9 24 c20 52 105 285 141 385 32 91 91 253 134 370 59 159 365 1003 365
1005 0 6 -151 2 -155 -4z"/>
</g>
</svg>
